<svg width="690" height="320" viewBox="0 0 690 320" fill="none" xmlns="http://www.w3.org/2000/svg">
<path d="M135.24 108.722C135.24 109.952 134.859 112.208 134.098 115.489C133.336 118.712 132.369 122.491 131.197 126.827C130.025 131.104 128.707 135.675 127.242 140.538C125.777 145.343 124.342 149.972 122.936 154.425C121.529 158.819 120.24 162.745 119.068 166.202C117.896 169.659 117.018 172.179 116.432 173.761C117.076 178.976 117.516 184.161 117.75 189.317C117.984 194.474 118.248 199.659 118.541 204.874C118.834 209.269 119.098 213.692 119.332 218.146C119.625 222.599 119.771 227.022 119.771 231.417C119.771 232.765 119.42 233.819 118.717 234.581C118.072 235.284 117.076 235.636 115.729 235.636C115.201 235.636 114.498 235.548 113.619 235.372C112.74 235.255 111.832 235.05 110.895 234.757C110.016 234.522 109.166 234.229 108.346 233.878C107.584 233.526 107.057 233.175 106.764 232.823C106.061 232.003 105.621 231.241 105.445 230.538C105.27 229.776 105.182 228.897 105.182 227.901C105.182 218.819 105.094 209.796 104.918 200.831C104.742 191.866 104.654 182.843 104.654 173.761L103.951 173.058C103.6 172.53 103.189 171.798 102.721 170.86C102.311 169.864 101.871 168.839 101.402 167.784C100.992 166.729 100.611 165.704 100.26 164.708C99.9082 163.712 99.6152 162.921 99.3809 162.335C97.4473 156.944 95.6309 151.554 93.9316 146.163C92.2324 140.772 90.416 135.382 88.4824 129.991C88.1895 129.054 87.7207 127.794 87.0762 126.212C86.4316 124.571 85.7871 122.872 85.1426 121.114C84.498 119.356 83.9414 117.716 83.4727 116.192C82.9453 114.61 82.6816 113.409 82.6816 112.589C82.6816 111.944 82.8574 111.417 83.209 111.007C83.5605 110.597 84 110.304 84.5273 110.128C85.0547 109.894 85.6113 109.747 86.1973 109.688C86.7832 109.63 87.3105 109.601 87.7793 109.601C89.3027 109.601 90.709 109.688 91.998 109.864C93.3457 109.981 94.6934 110.479 96.041 111.358C96.3926 111.593 96.9492 112.677 97.7109 114.61C98.4727 116.544 99.3223 118.946 100.26 121.817C101.197 124.688 102.164 127.794 103.16 131.134C104.215 134.474 105.182 137.696 106.061 140.802C106.939 143.907 107.73 146.661 108.434 149.063C109.137 151.466 109.635 153.136 109.928 154.073C111.861 146.573 113.795 139.132 115.729 131.749C117.721 124.366 119.42 116.866 120.826 109.249C120.943 108.546 121.061 107.784 121.178 106.964C121.354 106.085 121.559 105.294 121.793 104.591C122.086 103.888 122.496 103.302 123.023 102.833C123.551 102.306 124.283 102.042 125.221 102.042C125.982 102.042 126.92 102.218 128.033 102.569C129.205 102.921 130.318 103.419 131.373 104.063C132.428 104.649 133.336 105.353 134.098 106.173C134.859 106.935 135.24 107.784 135.24 108.722ZM203.443 171.827C203.443 178.097 202.887 184.278 201.773 190.372C200.66 196.407 198.814 202.062 196.236 207.335C193.717 212.608 190.377 217.413 186.217 221.749C182.057 226.026 176.959 229.542 170.924 232.296C169.4 232.999 167.73 233.644 165.914 234.229C164.156 234.815 162.311 235.313 160.377 235.724C158.502 236.134 156.627 236.456 154.752 236.69C152.877 236.925 151.119 237.042 149.479 237.042C148.834 237.042 148.102 237.013 147.281 236.954C146.52 236.954 145.787 236.837 145.084 236.603C144.381 236.427 143.795 236.104 143.326 235.636C142.857 235.167 142.623 234.522 142.623 233.702C142.623 232.999 142.77 232.267 143.062 231.505C143.355 230.743 143.736 230.011 144.205 229.308C144.732 228.604 145.289 227.989 145.875 227.462C146.461 226.876 147.076 226.437 147.721 226.144C147.428 225.675 147.135 224.356 146.842 222.188C146.607 220.021 146.373 217.267 146.139 213.927C145.963 210.587 145.787 206.866 145.611 202.765C145.436 198.604 145.26 194.327 145.084 189.933C144.967 185.538 144.85 181.173 144.732 176.837C144.674 172.442 144.615 168.399 144.557 164.708C144.498 161.017 144.439 157.823 144.381 155.128C144.381 152.374 144.381 150.382 144.381 149.151C144.381 143.644 144.469 138.224 144.645 132.892C144.82 127.56 144.908 122.14 144.908 116.632C144.264 116.632 143.648 116.456 143.062 116.104C142.535 115.753 142.271 115.226 142.271 114.522C142.271 113.585 142.506 112.735 142.975 111.974C143.443 111.153 144.029 110.45 144.732 109.864C145.494 109.278 146.314 108.839 147.193 108.546C148.131 108.194 149.01 108.019 149.83 108.019C150.65 108.019 151.441 108.106 152.203 108.282C152.965 108.399 153.756 108.546 154.576 108.722C162.369 110.597 169.312 113.438 175.406 117.247C181.5 121.056 186.598 125.685 190.699 131.134C194.859 136.583 198.023 142.735 200.191 149.591C202.359 156.446 203.443 163.858 203.443 171.827ZM190.436 170.245C190.436 164.386 189.732 158.878 188.326 153.722C186.92 148.507 184.811 143.761 181.998 139.483C179.244 135.147 175.758 131.339 171.539 128.058C167.379 124.718 162.545 121.964 157.037 119.796V120.147C157.037 135.265 157.271 150.265 157.74 165.147C158.268 179.972 159.029 194.913 160.025 209.972C160.201 212.257 160.348 214.542 160.465 216.827C160.641 219.054 160.904 221.28 161.256 223.507C166.764 221.69 171.393 218.878 175.143 215.069C178.893 211.261 181.881 206.925 184.107 202.062C186.393 197.14 188.004 191.925 188.941 186.417C189.938 180.851 190.436 175.46 190.436 170.245ZM220.406 160.841C220.406 161.837 220.172 162.569 219.703 163.038C219.293 163.448 218.502 163.653 217.33 163.653C216.803 163.653 215.982 163.595 214.869 163.478C213.756 163.302 212.613 163.067 211.441 162.774C210.328 162.481 209.332 162.071 208.453 161.544C207.633 161.017 207.223 160.372 207.223 159.61C207.223 159.376 207.311 158.731 207.486 157.677C207.662 156.563 207.867 155.392 208.102 154.161C208.395 152.931 208.629 151.817 208.805 150.821C209.039 149.825 209.215 149.269 209.332 149.151V149.239C209.625 148.771 209.977 148.478 210.387 148.36C210.797 148.243 211.207 148.185 211.617 148.185C212.145 148.185 212.818 148.272 213.639 148.448C214.518 148.565 215.367 148.771 216.188 149.063C217.066 149.298 217.857 149.62 218.561 150.03C219.264 150.44 219.703 150.88 219.879 151.349C220.055 151.817 220.143 152.462 220.143 153.282C220.201 154.044 220.201 154.747 220.143 155.392C220.143 155.626 220.113 155.919 220.055 156.271C220.055 156.563 220.055 156.798 220.055 156.974C220.055 157.267 220.055 157.56 220.055 157.853C220.113 158.146 220.172 158.438 220.23 158.731C220.289 159.024 220.318 159.347 220.318 159.698C220.377 160.05 220.406 160.431 220.406 160.841ZM223.658 230.89C223.658 232.237 223.336 233.204 222.691 233.79C222.105 234.317 221.139 234.581 219.791 234.581C219.088 234.581 218.297 234.493 217.418 234.317C216.598 234.142 215.777 233.907 214.957 233.614C214.137 233.263 213.375 232.853 212.672 232.384C211.969 231.915 211.441 231.388 211.09 230.802C210.855 230.45 210.65 229.366 210.475 227.55C210.299 225.733 210.152 223.478 210.035 220.782C209.977 218.087 209.889 215.069 209.771 211.729C209.713 208.39 209.654 205.021 209.596 201.622C209.596 198.224 209.596 194.913 209.596 191.69C209.596 188.468 209.596 185.655 209.596 183.253V176.485C209.596 175.899 209.596 175.313 209.596 174.728C209.654 174.142 209.771 173.644 209.947 173.233C210.182 172.765 210.504 172.384 210.914 172.091C211.383 171.798 212.027 171.651 212.848 171.651C215.426 171.651 217.301 172.384 218.473 173.849C219.703 175.255 220.465 177.159 220.758 179.562C221.051 183.136 221.256 186.71 221.373 190.284C221.549 193.8 221.695 197.374 221.812 201.007C221.93 204.288 222.018 207.54 222.076 210.763C222.193 213.927 222.398 217.091 222.691 220.255C222.75 220.899 222.809 221.515 222.867 222.101C222.926 222.687 223.014 223.272 223.131 223.858C223.248 225.03 223.365 226.202 223.482 227.374C223.6 228.487 223.658 229.659 223.658 230.89ZM261.275 170.333C261.275 171.036 261.012 171.622 260.484 172.091C260.016 172.56 259.43 172.97 258.727 173.321C258.023 173.614 257.291 173.819 256.529 173.937C255.826 174.054 255.24 174.112 254.771 174.112C254.068 174.112 253.395 174.054 252.75 173.937C252.105 173.761 251.461 173.585 250.816 173.409C250.172 173.233 249.557 173.087 248.971 172.97C248.385 172.794 247.77 172.706 247.125 172.706C246.246 172.706 245.367 172.853 244.488 173.146C243.609 173.438 242.818 173.849 242.115 174.376C241.412 174.903 240.826 175.548 240.357 176.31C239.947 177.071 239.742 177.921 239.742 178.858C239.742 180.265 240.035 181.671 240.621 183.077C241.207 184.425 241.969 185.802 242.906 187.208C243.902 188.614 245.016 190.05 246.246 191.515C247.535 192.921 248.883 194.356 250.289 195.821C251.988 197.696 253.688 199.601 255.387 201.534C257.145 203.468 258.697 205.489 260.045 207.599C261.451 209.708 262.594 211.935 263.473 214.278C264.352 216.622 264.791 219.083 264.791 221.661C264.791 223.888 264.41 225.88 263.648 227.638C262.945 229.396 261.92 230.89 260.572 232.12C259.283 233.351 257.701 234.288 255.826 234.933C254.01 235.636 252.018 235.987 249.85 235.987C249.264 235.987 248.355 235.87 247.125 235.636C245.953 235.401 244.605 235.079 243.082 234.669C241.559 234.2 239.977 233.702 238.336 233.175C236.754 232.647 235.289 232.091 233.941 231.505C232.652 230.86 231.568 230.245 230.689 229.659C229.869 229.015 229.459 228.429 229.459 227.901C229.459 227.198 229.781 226.495 230.426 225.792C231.07 225.03 231.832 224.356 232.711 223.771C233.59 223.126 234.498 222.599 235.436 222.188C236.432 221.778 237.252 221.573 237.896 221.573C238.775 221.573 239.684 221.778 240.621 222.188C241.617 222.599 242.613 223.067 243.609 223.595C244.723 224.181 245.836 224.708 246.949 225.177C248.121 225.646 249.322 225.88 250.553 225.88C251.49 225.88 252.018 225.558 252.135 224.913C252.311 224.269 252.398 223.536 252.398 222.716C252.398 220.665 252.047 218.731 251.344 216.915C250.641 215.04 249.732 213.224 248.619 211.466C247.506 209.708 246.217 208.009 244.752 206.368C243.287 204.669 241.822 202.999 240.357 201.358C238.834 199.718 237.34 198.077 235.875 196.437C234.469 194.796 233.209 193.126 232.096 191.427C230.982 189.669 230.074 187.882 229.371 186.065C228.727 184.249 228.404 182.315 228.404 180.265C228.404 177.745 228.961 175.489 230.074 173.497C231.188 171.446 232.623 169.688 234.381 168.224C236.197 166.759 238.219 165.646 240.445 164.884C242.73 164.063 245.016 163.653 247.301 163.653C248.062 163.653 249.234 163.829 250.816 164.181C252.398 164.474 253.951 164.913 255.475 165.499C256.998 166.085 258.346 166.788 259.518 167.608C260.689 168.429 261.275 169.337 261.275 170.333ZM312.34 236.075C312.34 236.72 311.988 237.306 311.285 237.833C310.582 238.36 309.762 238.8 308.824 239.151C307.945 239.503 307.037 239.767 306.1 239.942C305.162 240.177 304.43 240.294 303.902 240.294C302.906 240.294 301.998 240.089 301.178 239.679C300.357 239.327 299.596 238.858 298.893 238.272C298.189 237.687 297.516 237.042 296.871 236.339C296.285 235.636 295.729 234.933 295.201 234.229C293.15 231.71 291.041 228.897 288.873 225.792C286.705 222.687 284.771 219.728 283.072 216.915C283.072 217.149 283.102 217.442 283.16 217.794C283.219 218.146 283.248 218.438 283.248 218.673C283.365 219.903 283.453 221.134 283.512 222.364C283.629 223.536 283.775 224.737 283.951 225.968C284.01 226.671 284.068 227.374 284.127 228.077C284.244 228.722 284.361 229.425 284.479 230.187C284.596 231.124 284.713 232.062 284.83 232.999C284.947 233.937 285.006 234.903 285.006 235.899C285.006 237.13 284.654 237.95 283.951 238.36C283.248 238.829 282.311 239.063 281.139 239.063C280.318 239.063 279.439 239.005 278.502 238.888C277.564 238.771 276.656 238.536 275.777 238.185C274.898 237.833 274.107 237.364 273.404 236.778C272.701 236.192 272.174 235.431 271.822 234.493C271.646 233.79 271.471 232.472 271.295 230.538C271.119 228.604 270.973 226.466 270.855 224.122C270.738 221.72 270.621 219.317 270.504 216.915C270.445 214.513 270.387 212.521 270.328 210.938C270.328 210.587 270.299 210.294 270.24 210.06C270.24 209.825 270.24 209.591 270.24 209.356C269.771 208.946 269.361 208.448 269.01 207.862C268.658 207.276 268.482 206.72 268.482 206.192C268.482 205.431 268.629 204.757 268.922 204.171C269.215 203.585 269.537 203.028 269.889 202.501C269.537 195.294 269.361 188.116 269.361 180.968C269.361 175.05 269.42 169.19 269.537 163.39C269.713 157.53 269.859 151.671 269.977 145.812L270.24 134.034C270.299 133.448 270.328 132.687 270.328 131.749C270.328 130.812 270.328 129.815 270.328 128.761C270.328 127.472 270.328 126.124 270.328 124.718C270.328 123.312 270.357 121.993 270.416 120.763C270.475 119.532 270.533 118.419 270.592 117.423C270.65 116.427 270.768 115.694 270.943 115.226V115.313C271.178 114.435 271.5 113.79 271.91 113.38C272.32 112.97 273.023 112.765 274.02 112.765C276.48 112.765 278.385 113.497 279.732 114.962C281.08 116.427 281.754 118.39 281.754 120.851C281.754 124.776 281.725 128.702 281.666 132.628C281.666 136.495 281.637 140.392 281.578 144.317C281.52 148.243 281.461 152.169 281.402 156.095C281.402 159.962 281.402 163.858 281.402 167.784C281.402 169.19 281.402 170.626 281.402 172.091C281.461 173.497 281.49 174.933 281.49 176.397C281.549 177.569 281.578 178.771 281.578 180.001C281.578 181.231 281.578 182.521 281.578 183.868L291.07 168.751V168.839L291.861 167.257C292.037 166.964 292.125 166.759 292.125 166.642C292.184 166.524 292.242 166.378 292.301 166.202C292.418 165.968 292.623 165.616 292.916 165.147C293.268 164.679 293.854 163.976 294.674 163.038C294.967 162.745 295.318 162.481 295.729 162.247C296.139 162.013 296.666 161.896 297.311 161.896C297.955 161.896 298.6 162.101 299.244 162.511C299.947 162.862 300.562 163.331 301.09 163.917C301.617 164.503 302.057 165.147 302.408 165.851C302.76 166.554 302.936 167.198 302.936 167.784C302.936 168.253 302.672 169.073 302.145 170.245C301.617 171.358 300.914 172.735 300.035 174.376C299.215 176.017 298.277 177.804 297.223 179.737C296.168 181.612 295.055 183.517 293.883 185.45C292.77 187.384 291.686 189.259 290.631 191.075C289.576 192.892 288.639 194.503 287.818 195.909L285.533 199.601C286.881 201.944 288.434 204.552 290.191 207.423C292.008 210.235 293.912 213.077 295.904 215.948C297.896 218.819 299.918 221.573 301.969 224.21C304.078 226.847 306.129 229.161 308.121 231.153L309 231.856C309.703 232.384 310.436 233.028 311.197 233.79C311.959 234.493 312.34 235.255 312.34 236.075ZM377.555 166.378C377.555 169.015 376.881 170.89 375.533 172.003C374.186 173.058 372.281 173.819 369.82 174.288C370.348 183.312 370.67 192.276 370.787 201.183C370.963 210.089 371.051 219.054 371.051 228.077C371.051 229.483 370.758 230.567 370.172 231.329C369.586 232.091 368.531 232.472 367.008 232.472C365.719 232.472 364.43 232.325 363.141 232.032C361.91 231.739 360.797 231.3 359.801 230.714C358.805 230.069 357.984 229.249 357.34 228.253C356.754 227.198 356.461 225.909 356.461 224.386V196.964C356.461 193.507 356.461 190.05 356.461 186.593C356.461 183.136 356.402 179.679 356.285 176.222C351.246 176.925 346.207 177.54 341.168 178.067C336.129 178.536 331.09 178.858 326.051 179.034C326.227 191.515 326.578 203.995 327.105 216.476C327.281 219.054 327.457 221.573 327.633 224.034C327.867 226.495 327.984 228.956 327.984 231.417C327.984 232.589 327.662 233.468 327.018 234.054C326.373 234.64 325.465 234.933 324.293 234.933C323.414 234.933 322.477 234.874 321.48 234.757C320.484 234.581 319.488 234.317 318.492 233.966C317.555 233.614 316.676 233.175 315.855 232.647C315.035 232.12 314.391 231.476 313.922 230.714C313.746 230.421 313.6 229.542 313.482 228.077C313.365 226.612 313.248 224.767 313.131 222.54C313.072 220.313 313.014 217.794 312.955 214.981C312.896 212.169 312.867 209.269 312.867 206.28C312.867 203.292 312.867 200.362 312.867 197.491C312.867 194.562 312.867 191.866 312.867 189.405C312.867 186.944 312.867 184.806 312.867 182.989C312.867 181.173 312.867 179.913 312.867 179.21C312.047 179.21 311.314 179.034 310.67 178.683C310.025 178.272 309.703 177.628 309.703 176.749C309.703 175.694 309.996 174.698 310.582 173.761C311.227 172.765 311.988 171.944 312.867 171.3V118.214C312.867 117.042 313.072 116.104 313.482 115.401C313.951 114.698 314.801 114.347 316.031 114.347C318.023 114.347 319.605 114.64 320.777 115.226C322.008 115.812 322.916 116.632 323.502 117.687C324.146 118.683 324.557 119.913 324.732 121.378C324.967 122.784 325.113 124.308 325.172 125.948C325.348 133.097 325.465 140.245 325.523 147.394C325.582 154.542 325.699 161.69 325.875 168.839C330.914 168.37 335.924 167.901 340.904 167.433C345.885 166.905 350.895 166.144 355.934 165.147C355.641 158.937 355.26 152.784 354.791 146.69C354.381 140.597 353.766 134.444 352.945 128.233C352.477 125.304 351.92 122.403 351.275 119.532C350.631 116.603 350.309 113.644 350.309 110.655C350.309 109.601 350.689 108.927 351.451 108.634C352.271 108.341 353.121 108.194 354 108.194C355.406 108.194 356.812 108.429 358.219 108.897C359.684 109.366 360.855 110.187 361.734 111.358C362.262 112.12 362.818 113.731 363.404 116.192C363.99 118.595 364.518 121.466 364.986 124.806C365.514 128.146 366.012 131.749 366.48 135.616C366.949 139.483 367.359 143.204 367.711 146.778C368.062 150.294 368.355 153.487 368.59 156.358C368.883 159.171 369.059 161.222 369.117 162.511C369.82 162.335 370.553 162.188 371.314 162.071C372.076 161.896 372.809 161.808 373.512 161.808C374.918 161.808 375.943 162.247 376.588 163.126C377.232 163.946 377.555 165.03 377.555 166.378ZM415.875 218.673C415.875 220.431 415.377 222.247 414.381 224.122C413.443 225.997 412.213 227.726 410.689 229.308C409.166 230.831 407.408 232.091 405.416 233.087C403.482 234.083 401.549 234.581 399.615 234.581C396.861 234.581 394.488 234.054 392.496 232.999C390.504 231.886 388.775 230.421 387.311 228.604C385.846 226.729 384.645 224.62 383.707 222.276C382.828 219.933 382.125 217.53 381.598 215.069C381.07 212.55 380.689 210.06 380.455 207.599C380.279 205.079 380.191 202.794 380.191 200.743C380.191 198.985 380.279 196.905 380.455 194.503C380.689 192.101 381.041 189.61 381.51 187.032C382.037 184.454 382.74 181.905 383.619 179.386C384.498 176.866 385.582 174.61 386.871 172.618C388.219 170.626 389.801 169.015 391.617 167.784C393.492 166.554 395.631 165.938 398.033 165.938C399.908 165.938 401.578 166.319 403.043 167.081C404.566 167.843 405.826 168.868 406.822 170.157C407.877 171.388 408.668 172.823 409.195 174.464C409.781 176.104 410.074 177.804 410.074 179.562C410.074 181.847 409.547 184.337 408.492 187.032C407.438 189.728 406.061 192.335 404.361 194.854C402.721 197.374 400.846 199.659 398.736 201.71C396.686 203.702 394.635 205.226 392.584 206.28C392.701 207.335 392.936 208.888 393.287 210.938C393.639 212.931 394.107 214.923 394.693 216.915C395.338 218.907 396.07 220.636 396.891 222.101C397.77 223.565 398.795 224.298 399.967 224.298C400.553 224.298 401.051 224.122 401.461 223.771C401.93 223.419 402.34 222.95 402.691 222.364C403.043 221.778 403.336 221.134 403.57 220.431C403.863 219.728 404.127 219.054 404.361 218.409L404.889 217.179C405.006 217.003 405.064 216.886 405.064 216.827C405.123 216.769 405.182 216.681 405.24 216.563C405.65 215.802 406.031 215.099 406.383 214.454C406.793 213.81 407.35 213.253 408.053 212.784H407.965C408.199 212.55 408.434 212.433 408.668 212.433C408.961 212.374 409.225 212.345 409.459 212.345C410.104 212.345 410.807 212.55 411.568 212.96C412.33 213.37 413.033 213.897 413.678 214.542C414.322 215.128 414.85 215.802 415.26 216.563C415.67 217.267 415.875 217.97 415.875 218.673ZM398.473 179.913C398.473 179.327 398.443 178.712 398.385 178.067C398.326 177.423 398.18 176.866 397.945 176.397C397.125 177.394 396.393 178.595 395.748 180.001C395.162 181.349 394.664 182.784 394.254 184.308C393.844 185.772 393.492 187.267 393.199 188.79C392.965 190.313 392.789 191.72 392.672 193.009C394.195 191.192 395.543 189.142 396.715 186.856C397.887 184.513 398.473 182.198 398.473 179.913ZM442.33 237.306C442.33 238.126 442.125 238.8 441.715 239.327C441.305 239.854 440.777 240.265 440.133 240.558C439.547 240.909 438.873 241.144 438.111 241.261C437.408 241.437 436.764 241.524 436.178 241.524C434.127 241.524 432.34 240.938 430.816 239.767C429.293 238.595 427.975 237.071 426.861 235.196C425.748 233.38 424.84 231.3 424.137 228.956C423.434 226.554 422.848 224.181 422.379 221.837C421.91 219.435 421.559 217.149 421.324 214.981C421.09 212.755 420.914 210.851 420.797 209.269C420.27 203.819 419.889 198.282 419.654 192.657C419.479 187.032 419.391 181.466 419.391 175.958C419.391 160.899 419.918 145.987 420.973 131.222C420.973 130.987 420.973 130.724 420.973 130.431C421.031 130.138 421.061 129.845 421.061 129.552C421.119 128.321 421.178 126.915 421.236 125.333C421.295 123.692 421.383 122.081 421.5 120.499C421.617 118.917 421.734 117.481 421.852 116.192C422.027 114.845 422.232 113.907 422.467 113.38V113.468C422.701 112.647 423.023 112.032 423.434 111.622C423.844 111.212 424.547 111.007 425.543 111.007C427.652 111.007 429.439 111.71 430.904 113.116C432.369 114.522 433.102 116.28 433.102 118.39C433.102 118.858 433.072 119.327 433.014 119.796C433.014 120.206 432.984 120.616 432.926 121.026C432.867 121.437 432.809 121.847 432.75 122.257C432.75 122.608 432.75 122.931 432.75 123.224C432.574 125.509 432.428 127.794 432.311 130.079C432.252 132.306 432.164 134.562 432.047 136.847C431.754 141.886 431.52 146.925 431.344 151.964C431.227 156.944 431.168 161.983 431.168 167.081C431.168 169.249 431.197 172.091 431.256 175.606C431.314 179.122 431.432 182.96 431.607 187.12C431.783 191.222 432.018 195.47 432.311 199.864C432.662 204.259 433.102 208.448 433.629 212.433C434.156 216.417 434.771 220.021 435.475 223.243C436.236 226.466 437.115 228.956 438.111 230.714C438.639 230.948 439.137 231.329 439.605 231.856C440.133 232.325 440.572 232.882 440.924 233.526C441.334 234.112 441.656 234.728 441.891 235.372C442.184 236.075 442.33 236.72 442.33 237.306ZM456.92 211.905C456.92 214.718 456.891 217.296 456.832 219.64C456.832 221.983 456.891 224.562 457.008 227.374L458.59 226.231L459.557 225.616C462.428 223.331 464.918 220.548 467.027 217.267C469.195 213.927 470.982 210.382 472.389 206.632C473.795 202.882 474.82 199.044 475.465 195.118C476.168 191.134 476.52 187.354 476.52 183.78C476.52 183.077 476.49 182.11 476.432 180.88C476.432 179.591 476.314 178.331 476.08 177.101C475.846 175.87 475.494 174.815 475.025 173.937C474.557 172.999 473.883 172.53 473.004 172.53C471.598 172.53 470.162 173.38 468.697 175.079C467.232 176.778 465.855 178.8 464.566 181.144C463.336 183.487 462.223 185.86 461.227 188.263C460.23 190.606 459.498 192.452 459.029 193.8C459.029 193.858 459 193.888 458.941 193.888C458.941 193.888 458.941 193.917 458.941 193.976V194.063C458.59 194.884 458.209 195.763 457.799 196.7C457.447 197.638 457.213 198.517 457.096 199.337C456.979 200.157 456.891 201.095 456.832 202.149C456.773 203.146 456.744 204.2 456.744 205.313C456.744 205.899 456.744 206.485 456.744 207.071C456.803 207.599 456.832 208.097 456.832 208.565C456.832 209.21 456.832 209.825 456.832 210.411C456.891 210.938 456.92 211.437 456.92 211.905ZM461.754 292.237C461.754 293.526 461.402 294.405 460.699 294.874C459.996 295.343 459.059 295.577 457.887 295.577C456.48 295.577 454.928 295.343 453.229 294.874C451.529 294.464 450.182 293.673 449.186 292.501C448.893 292.091 448.6 290.89 448.307 288.897C448.072 286.905 447.838 284.562 447.604 281.866C447.369 279.229 447.164 276.476 446.988 273.604C446.812 270.792 446.637 268.302 446.461 266.134L446.109 261.476C445.406 248.937 445.055 236.397 445.055 223.858C445.055 216.534 445.172 209.356 445.406 202.325C445.699 195.235 445.992 188.058 446.285 180.792L446.637 171.563C446.637 170.626 446.637 169.718 446.637 168.839C446.695 167.901 446.812 166.993 446.988 166.114C447.281 165.353 447.633 164.767 448.043 164.356C448.512 163.888 449.244 163.653 450.24 163.653C452.76 163.653 454.605 164.415 455.777 165.938C456.949 167.403 457.623 169.22 457.799 171.388C459.674 168.81 461.9 166.759 464.479 165.235C467.115 163.712 470.133 162.95 473.531 162.95C476.402 162.95 478.805 163.595 480.738 164.884C482.73 166.173 484.312 167.843 485.484 169.894C486.656 171.886 487.477 174.142 487.945 176.661C488.473 179.122 488.736 181.554 488.736 183.956C488.736 188.585 488.326 193.214 487.506 197.843C486.686 202.413 485.396 206.866 483.639 211.202C481.939 215.479 479.771 219.552 477.135 223.419C474.498 227.228 471.393 230.626 467.818 233.614C467.35 234.024 466.793 234.464 466.148 234.933C465.504 235.401 464.83 235.841 464.127 236.251C463.424 236.661 462.691 237.013 461.93 237.306C461.227 237.599 460.582 237.745 459.996 237.745C459.352 237.745 458.795 237.599 458.326 237.306C457.857 237.013 457.447 236.661 457.096 236.251C457.213 240.294 457.359 244.483 457.535 248.819C457.77 253.155 458.033 257.491 458.326 261.827C458.619 266.222 458.971 270.558 459.381 274.835C459.85 279.112 460.406 283.243 461.051 287.228C461.227 287.989 461.373 288.78 461.49 289.601C461.666 290.479 461.754 291.358 461.754 292.237ZM528.023 218.673C528.023 220.431 527.525 222.247 526.529 224.122C525.592 225.997 524.361 227.726 522.838 229.308C521.314 230.831 519.557 232.091 517.564 233.087C515.631 234.083 513.697 234.581 511.764 234.581C509.01 234.581 506.637 234.054 504.645 232.999C502.652 231.886 500.924 230.421 499.459 228.604C497.994 226.729 496.793 224.62 495.855 222.276C494.977 219.933 494.273 217.53 493.746 215.069C493.219 212.55 492.838 210.06 492.604 207.599C492.428 205.079 492.34 202.794 492.34 200.743C492.34 198.985 492.428 196.905 492.604 194.503C492.838 192.101 493.189 189.61 493.658 187.032C494.186 184.454 494.889 181.905 495.768 179.386C496.646 176.866 497.73 174.61 499.02 172.618C500.367 170.626 501.949 169.015 503.766 167.784C505.641 166.554 507.779 165.938 510.182 165.938C512.057 165.938 513.727 166.319 515.191 167.081C516.715 167.843 517.975 168.868 518.971 170.157C520.025 171.388 520.816 172.823 521.344 174.464C521.93 176.104 522.223 177.804 522.223 179.562C522.223 181.847 521.695 184.337 520.641 187.032C519.586 189.728 518.209 192.335 516.51 194.854C514.869 197.374 512.994 199.659 510.885 201.71C508.834 203.702 506.783 205.226 504.732 206.28C504.85 207.335 505.084 208.888 505.436 210.938C505.787 212.931 506.256 214.923 506.842 216.915C507.486 218.907 508.219 220.636 509.039 222.101C509.918 223.565 510.943 224.298 512.115 224.298C512.701 224.298 513.199 224.122 513.609 223.771C514.078 223.419 514.488 222.95 514.84 222.364C515.191 221.778 515.484 221.134 515.719 220.431C516.012 219.728 516.275 219.054 516.51 218.409L517.037 217.179C517.154 217.003 517.213 216.886 517.213 216.827C517.271 216.769 517.33 216.681 517.389 216.563C517.799 215.802 518.18 215.099 518.531 214.454C518.941 213.81 519.498 213.253 520.201 212.784H520.113C520.348 212.55 520.582 212.433 520.816 212.433C521.109 212.374 521.373 212.345 521.607 212.345C522.252 212.345 522.955 212.55 523.717 212.96C524.479 213.37 525.182 213.897 525.826 214.542C526.471 215.128 526.998 215.802 527.408 216.563C527.818 217.267 528.023 217.97 528.023 218.673ZM510.621 179.913C510.621 179.327 510.592 178.712 510.533 178.067C510.475 177.423 510.328 176.866 510.094 176.397C509.273 177.394 508.541 178.595 507.896 180.001C507.311 181.349 506.812 182.784 506.402 184.308C505.992 185.772 505.641 187.267 505.348 188.79C505.113 190.313 504.938 191.72 504.82 193.009C506.344 191.192 507.691 189.142 508.863 186.856C510.035 184.513 510.621 182.198 510.621 179.913ZM540.328 236.163C539.449 236.163 538.482 236.046 537.428 235.812C536.432 235.577 535.465 235.196 534.527 234.669C533.648 234.142 532.887 233.497 532.242 232.735C531.656 231.915 531.363 230.948 531.363 229.835C531.363 228.194 531.422 226.583 531.539 225.001C531.715 223.36 531.891 221.749 532.066 220.167V220.255L532.594 214.366C532.77 212.257 532.916 209.942 533.033 207.423C533.15 204.903 533.238 202.354 533.297 199.776C533.414 197.14 533.502 194.562 533.561 192.042C533.619 189.522 533.648 187.208 533.648 185.099C533.648 183.868 533.619 182.638 533.561 181.407C533.561 180.118 533.561 178.829 533.561 177.54C533.502 176.427 533.473 175.196 533.473 173.849C533.473 172.442 533.473 171.153 533.473 169.981C533.473 168.751 533.619 167.755 533.912 166.993C534.264 166.173 535.201 165.763 536.725 165.763C538.072 165.763 539.479 166.114 540.943 166.817C542.467 167.521 543.521 168.517 544.107 169.806H544.02C544.312 170.45 544.518 171.505 544.635 172.97C544.811 174.376 544.928 175.636 544.986 176.749C545.982 175.226 547.096 173.614 548.326 171.915C549.615 170.216 550.992 168.663 552.457 167.257C553.922 165.792 555.475 164.591 557.115 163.653C558.756 162.716 560.514 162.247 562.389 162.247C564.85 162.247 566.725 162.862 568.014 164.093C569.303 165.323 570.24 166.876 570.826 168.751C571.412 170.567 571.734 172.53 571.793 174.64C571.852 176.69 571.881 178.565 571.881 180.265V180.968C571.881 181.671 571.852 182.374 571.793 183.077C571.793 183.722 571.676 184.337 571.441 184.923C571.266 185.45 570.914 185.89 570.387 186.241C569.918 186.593 569.244 186.769 568.365 186.769C567.428 186.769 566.432 186.651 565.377 186.417C564.322 186.124 563.326 185.714 562.389 185.187C561.51 184.659 560.748 184.015 560.104 183.253C559.459 182.433 559.107 181.495 559.049 180.44C559.049 179.972 559.049 179.503 559.049 179.034C559.049 178.565 559.078 178.097 559.137 177.628C559.137 177.335 559.137 176.983 559.137 176.573C559.195 176.104 559.225 175.665 559.225 175.255C557.35 177.13 555.68 179.444 554.215 182.198C552.809 184.952 551.52 187.882 550.348 190.987C549.234 194.093 548.268 197.228 547.447 200.392C546.627 203.497 545.924 206.31 545.338 208.829V209.093C545.162 210.909 545.045 212.696 544.986 214.454C544.928 216.212 544.869 218.028 544.811 219.903C544.752 222.013 544.664 224.151 544.547 226.319C544.488 228.487 544.342 230.597 544.107 232.647C543.99 233.761 543.639 234.61 543.053 235.196C542.525 235.841 541.617 236.163 540.328 236.163Z" fill="black"/>
<path d="M476.726 45.9393L490.455 44.8618L506.296 48.8126L519.32 56.3551L528.825 67.4892L534.809 77.905L546.074 97.2999L547.834 105.561L533.401 94.4266L516.856 84.7291L499.255 76.8275L466.165 67.4892L445.044 63.1792L444.34 59.5876L460.181 51.3268L476.726 45.9393Z" fill="#0A294C" fill-opacity="0.75"/>
<g filter="url(#filter0_f_172_70)">
<path d="M446.803 92.2718L462.292 105.202L482.006 118.132L505.239 123.16L522.488 123.519L524.711 222.725L516.745 231.868L505.239 231.868L493.845 212.567L462.292 237.455L471.94 204.948L471.94 169.9L451.529 186.662L423.152 167.36L391.184 204.948L381.832 198.852L394.776 172.366L309.646 180.567L364.408 151.614L446.803 92.2718Z" fill="#FFFEB9" fill-opacity="0.75"/>
</g>
<path d="M560.391 129.974C560.835 120.72 552.331 106.514 545.212 98.2772C542.049 94.6036 539.29 90.5872 536.984 86.3002C535.924 84.3537 534.957 82.3556 534.088 80.3129C530.236 71.2108 522.138 57.9739 506.113 51.1215C505.593 50.9146 505.116 50.6819 504.613 50.522C504.136 50.294 503.602 50.1154 503.081 49.9085C486.787 43.8436 472.007 47.9315 463.116 51.9442C461.119 52.8416 459.079 53.6379 457.004 54.3302C452.471 55.8857 447.784 56.9263 443.028 57.4332C432.333 58.5098 416.553 63.2231 410.696 70.28" stroke="black" stroke-opacity="0.75" stroke-width="7.54239" stroke-linecap="round" stroke-linejoin="round"/>
<path fill-rule="evenodd" clip-rule="evenodd" d="M559.999 131.874C553.99 147.901 515.249 147.354 473.749 130.767C432.25 114.18 402.386 87.2455 409.712 71.8012C414.915 60.8327 454.684 57.953 496.181 74.5422C537.678 91.1313 564.061 121.04 559.999 131.874Z" stroke="black" stroke-opacity="0.75" stroke-width="7.54239" stroke-linecap="round" stroke-linejoin="round"/>
<path fill-rule="evenodd" clip-rule="evenodd" d="M447.781 89.3588C450.396 82.5487 469.42 83.7875 490.28 92.1232C511.14 100.459 525.923 112.739 523.308 119.549C520.693 126.359 501.671 125.118 480.808 116.785C459.948 108.449 445.166 96.1688 447.781 89.3588Z" stroke="black" stroke-opacity="0.75" stroke-width="7.54239" stroke-linecap="round" stroke-linejoin="round"/>
<defs>
<filter id="filter0_f_172_70" x="299.646" y="82.272" width="235.065" height="165.184" filterUnits="userSpaceOnUse" color-interpolation-filters="sRGB">
<feFlood flood-opacity="0" result="BackgroundImageFix"/>
<feBlend mode="normal" in="SourceGraphic" in2="BackgroundImageFix" result="shape"/>
<feGaussianBlur stdDeviation="5" result="effect1_foregroundBlur_172_70"/>
</filter>
</defs>
</svg>
