<svg xmlns="http://www.w3.org/2000/svg" version="1.1" xmlns:xlink="http://www.w3.org/1999/xlink" xmlns:svgjs="http://svgjs.dev/svgjs" width="256" height="256"><svg width="256" height="256" viewBox="0 0 256 256" fill="none" xmlns="http://www.w3.org/2000/svg">
<path d="M46 32L55 21.5L69 13L83.5 9L98 10L109.5 13L131 18.5L138 23L120 25.5L101.5 30.5L83.5 37.5L53.5 54.5L35.5 66.5L32.5 64.5L38 47.5L46 32Z" fill="#0A294C" fill-opacity="0.75"></path>
<g filter="url(#filter0_f_172_22)">
<path d="M57 85.5L77 83.5L100 78.5L120 65.5L132.5 53.5L239 131.5L186.5 140.5L166 137.5L149.5 131.5L134.5 140.5L117 148L102 159.5L93.5 185L85 192.5L72 189L26 228L57 85.5Z" fill="#FFFEB9" fill-opacity="0.75"></path>
</g>
<path d="M163.911 31.0755C157.785 24.3178 141.857 20.4694 131.068 19.792C126.265 19.4814 121.51 18.6451 116.888 17.2983C114.78 16.6965 112.703 15.9921 110.664 15.1876C101.593 11.5878 86.6276 8.12552 70.4779 14.736C69.9641 14.9618 69.4634 15.1385 68.9954 15.3839C68.498 15.5639 67.9941 15.8192 67.4803 16.045C51.6872 23.395 44.0361 36.7369 40.5149 45.8443C39.7207 47.8877 38.8262 49.8907 37.8348 51.846C35.6984 56.1477 33.0941 60.2007 30.0691 63.9314C23.2231 72.2762 15.2971 86.7635 16.0498 95.8349" stroke="black" stroke-opacity="0.75" stroke-width="7.54239" stroke-linecap="round" stroke-linejoin="round"></path>
<path fill-rule="evenodd" clip-rule="evenodd" d="M164.955 32.676C171.843 48.0993 143.949 75.2315 102.931 93.1582C61.9137 111.085 21.9566 113.546 16.4097 97.5925C12.4696 86.2631 38.7085 56.0154 79.7259 38.092C120.743 20.1685 160.298 22.2498 164.955 32.676Z" stroke="black" stroke-opacity="0.75" stroke-width="7.54239" stroke-linecap="round" stroke-linejoin="round"></path>
<path fill-rule="evenodd" clip-rule="evenodd" d="M55.6668 82.7781C52.7837 76.1807 67.1565 63.5325 87.7732 54.5201C108.39 45.5076 127.436 43.5572 130.319 50.1546C133.202 56.7519 118.829 69.3968 98.2125 78.4126C77.5958 87.425 58.5499 89.3754 55.6668 82.7781Z" stroke="black" stroke-opacity="0.75" stroke-width="7.54239" stroke-linecap="round" stroke-linejoin="round"></path>
<path d="M194.26 125.301L153.583 112.663C153.021 112.489 152.385 112.555 151.859 112.831C151.333 113.108 150.918 113.595 150.743 114.156L145.608 130.684C145.434 131.245 145.5 131.882 145.777 132.408C146.053 132.933 146.54 133.349 147.102 133.523L149.107 134.146C148.518 135.195 147.632 136.063 146.58 136.616C145.108 137.391 143.384 137.559 141.78 137.06C138.972 136.188 136.028 136.461 133.451 137.816C130.875 139.171 128.982 141.442 128.109 144.25L127.461 146.336L124.172 145.314C121.364 144.441 118.42 144.714 115.843 146.069C113.267 147.424 111.374 149.695 110.501 152.503C110.003 154.108 108.94 155.405 107.415 156.207C106.311 156.788 105.146 156.997 103.948 156.889L104.571 154.883C104.945 153.68 104.254 152.365 103.05 151.992L86.4451 146.964C85.8835 146.79 85.2471 146.856 84.7213 147.133C84.1955 147.409 83.7803 147.896 83.6058 148.458L70.9151 189.162C70.5411 190.366 71.2324 191.68 72.4359 192.054L80.0578 194.422C83.0263 195.344 86.1558 195.041 88.8899 193.603C90.9404 192.525 92.5817 190.923 93.6559 188.882L112.35 194.69L111.677 196.856C110.355 201.108 112.733 205.63 116.986 206.951C119.072 207.599 121.299 207.368 123.192 206.372L123.22 206.425C124.215 208.318 125.891 209.718 127.977 210.366C130.063 211.014 132.291 210.783 134.184 209.787C135.151 211.628 136.803 213.108 138.969 213.781C141.055 214.429 143.23 214.225 145.175 213.202C146.143 215.043 147.794 216.523 149.961 217.196C152.047 217.845 154.221 217.64 156.114 216.645C158.007 215.65 159.408 213.973 160.056 211.887L160.729 209.721L164.098 210.768C166.184 211.416 168.359 211.212 170.252 210.217C172.145 209.221 173.546 207.545 174.194 205.459C174.867 203.293 174.582 201.093 173.562 199.28L173.615 199.253C175.507 198.257 176.908 196.581 177.556 194.495C178.204 192.409 178 190.234 177.005 188.341L176.977 188.289L177.03 188.261C178.922 187.266 180.323 185.589 180.971 183.503C181.644 181.337 181.36 179.137 180.34 177.325L180.392 177.297C182.285 176.302 183.686 174.625 184.334 172.539C185.655 168.287 183.277 163.765 179.025 162.444L175.627 161.345L181.061 143.854C183.325 144.074 185.602 143.682 187.652 142.603C190.387 141.165 192.41 138.759 193.332 135.79L195.7 128.168C195.875 127.607 195.809 126.97 195.532 126.444C195.256 125.919 194.821 125.476 194.26 125.301ZM180.219 139.062L152.78 130.537L150.694 129.889L154.458 117.774L190.722 129.041L189.027 134.497C188.479 136.262 187.233 137.722 185.603 138.579C183.921 139.464 181.984 139.61 180.219 139.062ZM180.001 171.193C179.727 172.076 179.104 172.806 178.316 173.221C177.527 173.636 176.572 173.735 175.69 173.461L172.32 172.414L170.154 171.741L167.988 171.068L162.532 169.373C160.687 168.799 159.691 166.906 160.264 165.061C160.539 164.179 161.109 163.476 161.95 163.034C162.739 162.619 163.693 162.52 164.576 162.794L170.032 164.489L172.198 165.162L174.364 165.835L177.734 166.882C179.526 167.483 180.522 169.376 180.001 171.193ZM176.586 182.185C176.312 183.067 175.689 183.798 174.9 184.212C174.112 184.627 173.157 184.727 172.275 184.452L168.905 183.405L166.739 182.732L164.572 182.059L159.117 180.364C157.271 179.791 156.276 177.898 156.849 176.053C157.124 175.17 157.694 174.468 158.535 174.025C159.324 173.61 160.278 173.511 161.161 173.785L166.617 175.48L168.783 176.153L170.949 176.826L174.319 177.873C176.164 178.447 177.159 180.34 176.586 182.185ZM172.904 190.498C173.318 191.287 173.418 192.241 173.143 193.124C172.869 194.006 172.299 194.709 171.458 195.152C170.616 195.594 169.714 195.666 168.832 195.391L165.462 194.344L163.296 193.671L161.13 192.998L155.674 191.303C154.792 191.029 154.089 190.459 153.647 189.618C153.204 188.776 153.132 187.874 153.407 186.992C153.681 186.109 154.251 185.407 155.092 184.964C155.881 184.549 156.836 184.45 157.718 184.724L163.174 186.419L165.34 187.092L167.506 187.766L170.876 188.812C171.786 189.139 172.489 189.709 172.904 190.498ZM169.781 204.088C169.507 204.97 168.937 205.673 168.095 206.115C167.307 206.53 166.352 206.63 165.469 206.355L162.1 205.308L159.934 204.635L157.767 203.962L152.312 202.267C150.519 201.666 149.471 199.801 150.044 197.956C150.318 197.073 150.941 196.343 151.73 195.928C152.519 195.513 153.473 195.414 154.356 195.688L159.811 197.383L161.978 198.056L164.144 198.729L167.513 199.776C169.306 200.377 170.329 202.323 169.781 204.088ZM165.867 158.356C163.781 157.708 161.606 157.912 159.713 158.908C157.82 159.903 156.42 161.579 155.772 163.665C155.098 165.831 155.383 168.031 156.403 169.844L156.351 169.871C154.458 170.867 153.057 172.543 152.409 174.629C151.736 176.795 152.02 178.995 153.041 180.808L152.988 180.835C151.095 181.831 149.695 183.507 149.047 185.593C148.398 187.679 148.602 189.854 149.598 191.747L149.626 191.799L149.573 191.827C147.68 192.822 146.28 194.499 145.631 196.585C144.31 200.837 146.688 205.359 150.941 206.68L156.396 208.375L155.723 210.541C155.449 211.424 154.879 212.126 154.038 212.569C153.249 212.984 152.294 213.083 151.412 212.809C149.619 212.208 148.624 210.315 149.144 208.497C149.344 207.855 149.225 207.247 148.976 206.773C148.7 206.248 148.213 205.832 147.651 205.658C146.448 205.284 145.133 205.975 144.759 207.179C144.485 208.061 143.862 208.792 143.074 209.206C142.285 209.621 141.33 209.72 140.448 209.446C139.565 209.172 138.863 208.602 138.42 207.761C138.005 206.972 137.906 206.017 138.18 205.135C138.38 204.493 138.261 203.884 138.012 203.411C137.763 202.938 137.249 202.47 136.687 202.295C135.484 201.922 134.169 202.613 133.795 203.816C133.521 204.699 132.951 205.401 132.11 205.844C131.321 206.259 130.366 206.358 129.484 206.084C127.639 205.51 126.643 203.618 127.216 201.772C127.416 201.13 127.297 200.522 127.048 200.048C126.772 199.523 126.285 199.107 125.723 198.933C124.52 198.559 123.205 199.25 122.831 200.454C122.557 201.336 121.987 202.039 121.146 202.481C120.304 202.924 119.402 202.995 118.52 202.721C116.675 202.148 115.679 200.255 116.252 198.41L117.623 193.997L124.578 171.613C125.063 170.62 125.843 169.806 126.895 169.253C128.157 168.59 129.562 168.455 130.926 168.878L140.634 171.895C143.442 172.767 146.386 172.494 148.963 171.139C151.539 169.784 153.432 167.513 154.28 164.785L156.426 158.018C156.601 157.457 156.587 156.793 156.311 156.267C156.034 155.741 155.547 155.326 154.958 155.099L131.984 147.917L132.633 145.831C133.131 144.226 134.194 142.929 135.719 142.127C137.191 141.353 138.915 141.185 140.519 141.683C143.327 142.556 146.271 142.283 148.848 140.928C151.056 139.766 152.72 137.952 153.711 135.753L176.817 142.932L171.458 160.181L165.867 158.356ZM119.701 170.889L113.721 190.277L95.2676 184.544L102.447 161.437C104.821 161.867 107.311 161.497 109.467 160.363C112.043 159.008 113.936 156.737 114.809 153.929C115.307 152.325 116.37 151.027 117.895 150.226C119.367 149.451 121.091 149.283 122.696 149.782L125.985 150.804L128.151 151.477L130.317 152.15L151.017 158.581L149.543 163.182C149.045 164.786 147.982 166.084 146.51 166.858C145.038 167.632 143.314 167.8 141.709 167.302L132.001 164.286C130.236 163.737 128.322 163.67 126.551 164.132C125.837 164.306 125.098 164.56 124.414 164.92C124.204 165.03 123.941 165.168 123.759 165.332C122.106 166.402 120.756 167.918 119.969 169.741C120.005 170.192 119.853 170.54 119.701 170.889ZM86.8133 189.527C85.1307 190.412 83.2741 190.583 81.509 190.034L76.1059 188.312L87.3731 152.047L99.488 155.811L98.7347 157.953L90.2095 185.392C89.6611 187.157 88.4432 188.67 86.8133 189.527Z" fill="black" fill-opacity="0.75"></path>
<defs>
<filter id="SvgjsFilter1001" x="16" y="43.5" width="233" height="194.5" filterUnits="userSpaceOnUse" color-interpolation-filters="sRGB">
<feFlood flood-opacity="0" result="BackgroundImageFix"></feFlood>
<feBlend mode="normal" in="SourceGraphic" in2="BackgroundImageFix" result="shape"></feBlend>
<feGaussianBlur stdDeviation="5" result="effect1_foregroundBlur_172_22"></feGaussianBlur>
</filter>
</defs>
</svg><style>@media (prefers-color-scheme: light) { :root { filter: none; } }
@media (prefers-color-scheme: dark) { :root { filter: none; } }
</style></svg>